<?xml version="1.0" standalone="no"?>
<!DOCTYPE svg PUBLIC "-//W3C//DTD SVG 20010904//EN"
 "http://www.w3.org/TR/2001/REC-SVG-20010904/DTD/svg10.dtd">
<svg version="1.0" xmlns="http://www.w3.org/2000/svg"
 width="1452.000000pt" height="1056.000000pt" viewBox="0 0 1452.000000 1056.000000"
 preserveAspectRatio="xMidYMid meet">

<g transform="translate(0.000000,1056.000000) scale(0.100000,-0.100000)"
fill="#000000" stroke="none">
<path d="M11985 10119 c-60 -4 -272 -12 -470 -18 -337 -9 -470 -19 -543 -41
-17 -4 -39 -6 -49 -4 -34 9 -54 -27 -51 -92 3 -53 5 -59 27 -62 27 -4 27 -5
-4 -237 -15 -110 -16 -137 -5 -175 7 -25 18 -92 24 -150 9 -90 14 -105 30
-108 24 -5 36 14 36 61 0 35 2 37 20 27 17 -9 35 -4 99 25 73 33 85 35 178 35
55 0 136 5 180 11 156 21 156 21 -49 -141 -100 -80 -383 -306 -627 -503 -244
-197 -450 -361 -458 -364 -13 -5 -14 4 -9 58 4 35 11 161 16 279 12 263 16
289 45 300 31 12 37 35 16 62 -18 22 -25 23 -220 26 -293 6 -521 -27 -521 -76
0 -12 -14 -25 -40 -37 -82 -37 -75 -68 14 -58 l49 6 -6 -54 c-4 -30 -7 -194
-7 -365 l0 -311 -712 2 c-925 3 -1549 23 -1928 61 -131 13 -257 15 -815 9
-727 -7 -1213 -20 -1290 -35 -27 -6 -162 -14 -300 -19 -137 -5 -313 -15 -390
-22 -94 -8 -177 -9 -253 -3 l-113 9 -2 414 c-2 330 -5 415 -15 419 -7 2 -24
16 -37 30 -21 22 -37 27 -132 37 -118 14 -376 4 -424 -16 -42 -17 -81 -85 -86
-149 -3 -30 -14 -79 -25 -108 -16 -41 -18 -55 -8 -66 6 -8 10 -26 8 -40 -3
-24 -16 -16 -203 131 -110 86 -274 213 -365 282 -99 75 -170 135 -176 151 -19
45 -80 45 -104 1 -7 -14 -21 -21 -38 -21 -16 0 -58 -19 -95 -42 -55 -35 -70
-51 -84 -86 -12 -32 -34 -58 -82 -97 -75 -59 -171 -158 -171 -175 0 -6 -11
-28 -25 -48 -42 -61 -26 -110 32 -99 22 4 40 -4 83 -35 30 -23 69 -54 86 -70
17 -16 53 -37 80 -47 35 -13 110 -70 266 -202 119 -101 217 -187 217 -190 2
-12 -29 -19 -151 -35 -105 -13 -212 -14 -298 -2 -22 3 -25 -1 -26 -27 0 -16
-9 -48 -18 -69 -14 -32 -17 -56 -12 -125 3 -47 8 -164 12 -259 6 -157 5 -174
-11 -186 -19 -14 -17 -63 3 -58 6 1 12 -6 12 -16 0 -21 30 -52 49 -52 9 0 11
9 7 28 l-6 27 297 1 c218 1 334 5 433 18 74 9 158 20 185 23 l50 5 5 -638 c7
-903 3 -1857 -9 -2004 -6 -69 -16 -412 -23 -763 -9 -491 -9 -668 0 -770 7 -73
15 -170 18 -216 l7 -84 -24 8 c-46 15 -296 22 -432 12 -119 -9 -146 -8 -197 7
-104 28 -150 19 -150 -30 0 -17 -8 -24 -30 -29 -52 -11 -54 -27 -51 -295 2
-192 6 -256 18 -294 13 -40 14 -59 6 -100 -21 -96 14 -114 186 -97 128 14 171
14 171 1 0 -8 -720 -601 -739 -608 -5 -1 -23 20 -41 48 -24 37 -38 50 -56 50
-13 0 -24 -5 -24 -10 0 -6 33 -67 72 -136 52 -90 98 -153 157 -218 51 -55 93
-112 108 -145 13 -29 42 -69 64 -90 23 -20 52 -58 66 -84 20 -41 28 -48 50
-45 41 5 52 32 24 62 -13 13 -20 29 -16 35 3 7 32 25 63 41 31 16 71 38 87 49
17 12 43 21 59 21 25 0 28 3 23 26 -4 23 15 41 212 198 119 95 272 217 341
270 l125 98 8 -39 c4 -21 10 -146 13 -278 6 -258 14 -297 53 -276 12 7 28 7
49 -1 26 -10 38 -8 93 17 61 28 72 29 237 33 132 3 175 7 179 18 2 7 18 16 34
19 20 5 29 12 27 23 -1 10 6 30 17 45 18 28 18 30 -3 96 -21 65 -32 233 -46
706 l-1 40 125 12 c335 31 2259 32 3360 1 605 -16 973 -17 1298 0 139 6 427
12 641 12 l388 0 12 -198 c11 -183 32 -838 28 -872 -2 -20 22 -102 35 -117 16
-20 54 -15 69 8 14 20 22 21 186 19 l171 -1 94 40 c110 46 161 57 176 38 6 -7
12 -35 14 -62 2 -42 6 -50 24 -53 41 -6 48 20 46 172 -2 77 -12 228 -22 333
-11 106 -20 195 -20 198 0 17 45 -17 277 -208 142 -118 270 -217 284 -220 14
-4 41 -17 60 -29 19 -13 56 -34 83 -48 71 -37 156 -109 190 -162 37 -57 60
-67 89 -41 12 11 39 30 60 42 23 14 58 53 89 100 63 93 170 206 220 232 56 29
74 59 82 138 4 41 13 74 22 81 28 24 13 48 -73 121 -48 41 -101 86 -117 101
-17 15 -92 75 -166 135 -240 191 -330 266 -330 275 0 11 75 10 305 -7 110 -8
208 -15 218 -15 18 0 57 33 57 50 0 22 -41 50 -74 50 -19 0 -37 4 -40 9 -7 10
-23 223 -32 411 -6 126 -19 170 -49 170 -8 0 -18 8 -24 17 -6 11 -23 18 -48
19 -21 1 -69 7 -108 13 -38 6 -152 11 -252 11 -100 0 -261 7 -357 15 -96 9
-240 19 -318 23 l-143 7 -9 460 c-9 458 1 885 25 1075 6 41 15 474 21 962 10
813 9 903 -7 1070 -16 179 -27 354 -41 711 l-7 178 39 -5 c37 -5 380 -20 704
-31 80 -3 204 -8 275 -11 125 -6 236 4 293 27 31 12 38 36 20 68 -14 22 -15
52 -7 208 8 170 30 357 44 371 3 4 20 6 38 7 25 0 33 5 35 21 5 34 -22 46
-144 60 -64 7 -125 16 -137 20 -12 4 -69 10 -126 13 l-104 6 204 165 c295 239
609 483 616 477 6 -7 25 -348 27 -516 3 -135 6 -175 17 -182 8 -5 43 -9 79 -9
61 0 133 15 295 60 39 11 126 24 195 30 90 8 128 15 136 26 15 19 24 345 27
914 2 523 -8 618 -66 636 -10 3 -33 22 -52 41 -30 31 -33 37 -19 47 15 12 10
46 -7 46 -5 0 -15 15 -23 34 -9 23 -23 36 -42 40 -16 4 -48 25 -72 48 -54 49
-87 63 -209 88 -99 21 -177 23 -378 9z m-3622 -2569 c61 -6 175 -14 252 -20
232 -17 576 -53 573 -61 -2 -4 -122 -102 -268 -220 -146 -117 -344 -276 -440
-354 -340 -274 -1535 -1231 -1547 -1239 -8 -4 -115 77 -285 216 -150 123 -367
300 -483 393 -115 93 -349 282 -520 420 -170 138 -467 379 -660 534 -192 156
-351 287 -353 291 -4 10 922 26 1299 21 289 -3 497 7 719 33 66 8 1600 -5
1713 -14z m-4077 -792 c462 -382 1013 -836 1449 -1198 143 -118 320 -265 393
-325 72 -60 132 -112 132 -115 0 -4 -51 -47 -112 -97 -62 -50 -291 -233 -508
-408 -217 -175 -676 -543 -1020 -818 -344 -275 -660 -530 -703 -565 -44 -37
-82 -61 -87 -56 -4 5 -10 77 -13 159 -4 83 -10 265 -16 405 -28 739 -23 2013
10 2400 6 69 13 317 16 553 3 235 8 427 12 427 4 0 205 -163 447 -362z m5373
-228 c22 -504 12 -851 -39 -1340 -10 -102 -22 -270 -26 -375 -6 -200 11 -1274
22 -1312 4 -16 2 -23 -7 -23 -8 0 -143 105 -300 233 -157 127 -429 348 -605
489 -175 141 -458 370 -629 508 -170 138 -367 297 -437 353 -70 56 -126 107
-125 113 1 7 171 146 378 310 207 165 612 486 900 715 288 229 596 474 684
544 l160 127 7 -44 c3 -23 11 -158 17 -298z m-2626 -2038 c203 -168 722 -595
1073 -883 433 -357 713 -590 718 -597 2 -4 -282 -7 -632 -8 -1360 -2 -2620
-13 -2712 -23 -134 -15 -304 -13 -466 4 -77 8 -165 16 -198 17 l-58 3 203 160
c112 87 323 254 469 370 146 116 449 357 675 535 225 179 482 382 570 452 88
70 162 128 163 128 2 0 90 -71 195 -158z"/>
</g>
</svg>
